<svg id="Layer_1" data-name="Layer 1" xmlns="http://www.w3.org/2000/svg" viewBox="0 0 977.37 3.24"><title>hand-line-right</title><path d="M977.14,2.28c.51-.09.22-.28-1.19-.24l-1,.33Z" style="fill:#202020"/><path d="M967.6,1.67c-1.67.16-3.59.44-2.51.75,1.65-.32,2-.19,3.83-.56,1.42,0,2.47.11,2.24.23a26.4,26.4,0,0,0,3-.13,30.87,30.87,0,0,0-6.62-.05C967,1.82,967.48,1.73,967.6,1.67Z" style="fill:#202020"/><path d="M829.05,1.15l.89,0C829.7,1.17,829.39,1.16,829.05,1.15Z" style="fill:#202020"/><path d="M743.21,1a3.52,3.52,0,0,0,1-.07C743.56.92,743.06.94,743.21,1Z" style="fill:#202020"/><path d="M728.55.61l.86,0A4.73,4.73,0,0,0,728.55.61Z" style="fill:#202020"/><path d="M829.05,1.15,826.76,1A10.28,10.28,0,0,0,829.05,1.15Z" style="fill:#202020"/><path d="M948.5,2.47c.48,0,.88,0,1.25-.09l-1.17,0Z" style="fill:#202020"/><path d="M866.89.89h.7c.21,0,.4-.08.58-.13Z" style="fill:#202020"/><path d="M895.94.83a1.83,1.83,0,0,0-1.14.39A5.75,5.75,0,0,1,896.23,1C896.24,1,896.16.92,895.94.83Z" style="fill:#202020"/><path d="M942,1.33l.82,0Z" style="fill:#202020"/><path d="M846.11.82a.65.65,0,0,0-.26-.1S845.95.79,846.11.82Z" style="fill:#202020"/><path d="M33.8,2.94s0,0,0-.05C33.63,2.92,33.58,2.94,33.8,2.94Z" style="fill:#202020"/><path d="M.14,1.55l.47,0c0-.05.1-.11.1-.16Z" style="fill:#202020"/><path d="M701.73.25h.12C702.55.22,702.15.23,701.73.25Z" style="fill:#202020"/><path d="M455.48.45c2.79.25-4.54.32-.34.6C454.75.95,459,.62,455.48.45Z" style="fill:#202020"/><path d="M947.74,2.43h-1.19C947.1,2.44,947.46,2.44,947.74,2.43Z" style="fill:#202020"/><path d="M455.14,1.06h0l.43,0Z" style="fill:#202020"/><path d="M639.92.42a3.51,3.51,0,0,0,.63.12A1.83,1.83,0,0,0,639.92.42Z" style="fill:#202020"/><path d="M686,.82l-1.14,0C685.28.8,685.64.81,686,.82Z" style="fill:#202020"/><path d="M616,.81a14.88,14.88,0,0,0-1.68,0l.26,0A7.45,7.45,0,0,1,616,.81Z" style="fill:#202020"/><path d="M591.13.81l.46.06.79,0Z" style="fill:#202020"/><path d="M109.42,2.8a6.67,6.67,0,0,1-1.15-.25C108.66,2.75,105,2.82,109.42,2.8Z" style="fill:#202020"/><path d="M948.48,2.31a1.93,1.93,0,0,1-.74.12l.83,0C948.64,2.37,948.66,2.34,948.48,2.31Z" style="fill:#202020"/><path d="M615,3l-4,0C612.16,3,613.59,3,615,3Z" style="fill:#202020"/><path d="M287.93,2.76l-.91,0A6.41,6.41,0,0,0,287.93,2.76Z" style="fill:#202020"/><path d="M599.32,3c-.71-.1-1.45-.16-2.23-.19a3.8,3.8,0,0,0-.46.07Z" style="fill:#202020"/><path d="M108.26,2.55h0Z" style="fill:#202020"/><path d="M82.22,3.21c3.77,0,1.77-.36,2.57-.57,4.5-.11,2.08.27,3.61.46,2.81-.1,5-.44,7.05-.42.16.06.56.08.09.16,3-.29,8.81,0,12.27-.38a1.9,1.9,0,0,1,.45.09c-.56-.19-.65-.37-.53-.51a18.16,18.16,0,0,1,3.77,0,5.9,5.9,0,0,0-1.61.17l1.77-.1c1.59.35-2.42.12-2.42.38,3.45-.11,7.47-.4,10.12-.3.55.34-6.18.11-2.65.42l-4.09-.13c3.13.54-2.49,0,.39.54,5.38.1,6-.17,11.39-.07,1.21-.19-.4-.28.81-.47,7.63-.34,6,.85,11.62.4a17.41,17.41,0,0,1,6-.43l-1.36.38c5.21,0,3-.55,8.43-.29-1,.15-4.1.13-3.31.17,3.54.3,2.5-.22,5.22-.22l.56.34c5.55-.05,11.66-.3,17.81-.36-.34.1-1.39.21,0,.31,7.75-.17,16.55,0,24,.24l2.86-.29c.66,0,1.23.13.51.19,2.91.11.15-.19,1.55-.3,1.66,0,2.19.17,1.14.26,5.14-.25,14.65-.54,20.07-.22l-1.06.09c4.22.12,4.76-.6,8.67-.33l-.75.05c9.16.13,19.27-.14,26.26.3,1.33-.42,9.06.19,9.65-.4,5.23.29,3.73.4,11.09.59,2,0,2.93-.37,5.36-.43l.06.31,3.3-.32,1.76.37L287,2.8c-.91,0-1.93-.14-1.79-.23a52.83,52.83,0,0,1,8.77.37l8.43-.26a18.07,18.07,0,0,1-2.71.25c4.5-.31.82.32,4.94,0-.55-.07.3-.18.39-.25,2.06.19,6.73.19,10.19.11l-.66.21c6.25.05,13.18-.1,20.19-.1-2.52-.1-1.94-.47.12-.5l.82.33c1.33-.2-2.15-.12.58-.37,2.62,0,1.76.37.26.48l3.19-.11c.19.1-.56.15-.75.27,1.31-.2,5.5.33,7.39,0l.18.1c7,0,10.19-.11,15.91-.13.11-.28,2.35-.22,4-.45,4.2.09,8.86.31,13.92.29,3.55-.14,1-.24,2.64-.41.26.26,5.31.23,2.69.42,6.07,0,7.75-.05,15.43-.26-.83-.1-1.77-.15-1.28-.24a8.73,8.73,0,0,1,3,.23l-.37,0c8.62-.38,19.89.75,26.75.21l-.38,0L436,2.55c3.27,0-2,.19.46.35,7.68-.43,12.13.06,18.45-.22,4.89.76,17.37-.05,24,.43l-.38-.18a15.64,15.64,0,0,1,3.32.14c-.18-.14-1.85-.16-.79-.26,14.46-.21,29.85.26,44.68.42,5.42,0,3.08-.92,9.91-.5l-1.94.33c10.94-.4,22.38,0,33.09-.32a8,8,0,0,1-1.7.17,46.85,46.85,0,0,0,8.41-.18c1.67,0,.39.18,1.41.28,2.27.14,5.7-.31,6.9-.07.21,0-.64.08-1.05.1,1.48-.12,6.89,0,5.47-.25,4,.13,7.69-.12,10.9,0,2.09-.31,6.88.15,7.55-.29-.29.45,7,.36,9.59.15-.85.14,2.21.14,1.21.33,2.9,0,5.56-.09,5.05-.32,5.35.54,10.74-.44,13.75.26,8.62-.24,16.59-.41,24.35-.51-.28.45-8.57,0-8.24.52,7.35-.19,11.6-.57,18.89-.46,1.89.06-1.07.2-1.71.27,7.35-.19,14.21,0,20.74-.2a8.88,8.88,0,0,1-1.39.12c1.29,0,3,.07,2.85-.14l-1.26.06c-2.06-.3,5.12-.62,5.35-.78-2.19.59,6.46.15,3,.89.85,0,1.91-.14,1.72-.27,1.26,0,1.66.12.38.28,4.62-.11,3-.33,7.16-.33a8.56,8.56,0,0,1-1.29.25,59.73,59.73,0,0,1,7.78-.3c-.21.06.2.14-.86.14,6.07,0,10.34-.52,17-.33-2,.43,2.26.14,2.62.52l3.58-.11-1.44-.18c3.14,0,5.91-.27,8.6-.14l-2.33.15,5.88-.07-3.33-.14c3.17-.19-.34-.47,3.83-.37-.85,0,3.14,0,4.77.22h0a42.44,42.44,0,0,1,5.47-.15c.6.12-.48.41-.09.49,1.53-.31,7.34-.09,9.28-.42-.65.08-.68.27-.47.31L766.36,2c1.45.08,1.67.12,1.43.28,4.37,0-1.39-.47,3.8-.27-.41,0-.21.06-1.06.1,5.21.11,10.06-.16,14.85,0,1.41.38-4.18.09-2.57.41,6.9-.07,14.29-.45,21-.36l-1.24,0c.93-.53,5,.26,8.35,0-.83,0-1.08.29-.86.24,4.57.09,9.35-.13,16.28-.3l-.86.14c2.69.12,7.1.07,10,.13C836.32,2.18,838,2.2,837,2c9,.78,17.12-.42,25.09.23-1,0-2.27.12-1.51.12l6.78-.13A9.76,9.76,0,0,0,865,1.91a35.88,35.88,0,0,1,4.45-.24c-3.05.15,0,.37,1.34.5-.22-.07.23-.15.12-.22,3.54.41.59-.46,5.43-.19l-.26.12c1.81-.06,3.48-.22,5.43-.19.81.27-1.93.12-2.05.34,2.74,0,5.41-.51,7.89-.24-1.16.07-2.84.08-4,.15a37.24,37.24,0,0,0,5,.28h-.2l4.64.14-1.18-.09c3.43-.7,7-.13,11.61-.58-4.49.43-.74.25-1.09.55,1.18.08,3,.18,2.46.26,2.18-.24,3.65.19,6.73-.16.14.1,2.34,0,1.84.25,2.84-.08-.67-.17-.43-.29,4.38-.33,10.29.4,16.59-.05,5.43-.19,6.44-.52,11.48-.68,1.7.16-1.39.36-1.39.36a71.47,71.47,0,0,0,7.4,0c-.52.09,0,.16.8.27,2.08,0,1.39-.36,4.13-.21a14.55,14.55,0,0,1-2.07.39c2.45-.09,4.86-.27,7.39-.36.67.17-1.53.26-2.42.37A75.42,75.42,0,0,0,963,2l-1.83-.1c1,0,.53.23-.23.28A8.27,8.27,0,0,1,957.25,2l1.8-.06c-1.85-.57-7.24.09-10.87.06l1.51-.42L946,1.89c-.79-.11-1.33-.34.46-.4-2.6-.21-2.3.15-4.54-.08-.25,0-.13-.06.09-.07l-2.54.12c.5-.09-.42-.29,1.14-.23-4.56-.24-7.36.31-9.08,0l.38,0c-6.33.14-.61.31-5.36.66l-3.2-.75-.62.31c-.65,0-1.95,0-1.71-.16-2.43.21.41.13-1,.33-3.14-.28-8.67.13-9.38-.36-1.13.23,3,.18-.35.34-1-.52-3.88.09-6.75-.15.88-.27,3.6-.13.73-.37-1.73.46-5.59-.1-8,0-.11.36-5.27.15-9.33.27.26-.12-7.65-.2-11.43-.33l.11-.06c-.73.37-4.63.3-7.47.37.11-.22.62-.31,2.16-.4h-2.67a21.08,21.08,0,0,1-3.2.22l.67-.27c-3.55,0-7.16.32-11.73.14-.26.26,3.64.71-1.2.88-.18-.14-.36-.38.91-.43a20,20,0,0,1-2.31.06l1.93-.23c-2.08-.1-1.09.19-2.75.17,0-.2-1.23-.14-1-.3.43,0,1.45.08,2.09,0a42.51,42.51,0,0,1-4.9-.3c.16.11,0,.27-1.38.29-3.55,0-1.22-.24-3.29-.34-.86.14-3.13,0-3.19.29a5.17,5.17,0,0,1-1.63-.22c-1.84.13-8.59,0-6.52.35l.47,0h-.3c-6,.29-12.53-.17-18.51,0v-.1c-3.57.11-7.95.07-10.5.28-1.06,0-2.49-.18-2-.3a66.3,66.3,0,0,1-7,0C795,.92,791.3.94,795.06,1a62.65,62.65,0,0,0-8.16,0c1.3-.25-2.67-.32-4.36-.24L785,.94c-1.9,0-3.55,0-5.24,0l.91-.33c-7.26-.4-13.09.69-18.62,0-1.92.23,3.94.16,2.23.44C761,1,757.5.52,756.45.52c-4.57-.18-4.27.49-9.05.36.61.12,1.19.44-2.39.55-3.34,0-4.11-.5-2-.59a3.22,3.22,0,0,1,1.15.07c1.08,0,2.5-.09,1.17-.22L744.9.8c-1.66-.12-6.25-.11-5.18-.3-2.52.11-1.08.19.79.26-4.29-.17-6.7,0-11.11-.12.7.07,1.35.2.65.2-6.47-.15-2.85.23-7.23.28-2.49-.18.89-.43-3.52-.28-2.7-.12-.57-.31.5-.41-4,.23-7.51-.15-9.81-.19l2.12-.1c-1.27.06-2.3.06-3.36.05L710,.42a10.57,10.57,0,0,1-2.27-.14c-1.28.16,1,.39-1.56.61-1.66-.12-5,.13-5.62-.19,5.21.11-.58-.32,3.84-.37-.85,0-1.89,0-3.14,0-.19,0,.18-.07.52-.08-5-.28-2.29.36-7.46.35.66-.18-1.2-.34-2-.3,2.08,0,1,.3-.91.43-3.32-.14-3.6.1-5.34.09l2,.06a34.26,34.26,0,0,1-4.64.21c-.2-.14,2.1-.1,1.27-.16-2.57.31-5.8-.32-9.38-.11C673.54.7,675,.49,673.59.41c-4,.23-4.34-.24-8.56-.05,1.21.24,1.43.18-1.54.41L670.42.6,666,.95c2.09,0,4.41-.15,5.67-.11-2.12.19-1.9.14-.9.33-2.86-.36-5.67.21-9,0l.1-.59c-5-.26-8.84.3-15.29.15l2.08.1c-.87.23-4,0-6.08.13.19-.2-1.11-.27-2-.39.11.15-4.73,0-5.31.38L632.35.66c-5.21-.11-6,.56-11,.5C622.9.94,620.62.8,624,.65a15.49,15.49,0,0,0-3.21.1c-1-.12-4.64.27-6.18.08a11.16,11.16,0,0,1-2.82.28c-.21,0,0-.1,0-.1s-2.94.13-1.3.35c-5.16-.62-14.41,0-18.9-.48-3.65.07-8.05.13-11.37.14.21-.06,0-.1.64-.08-4.57-.18-2.81.57-8,.36-2.66-.32,2.76-.17,1.11-.29-.72-.65-6.28.09-9.78-.29l.85,0c-2.68-.22-6.53.25-10.91.2,0,0,.21-.06,0-.1-3,.33-8.65.44-12.86.53,1.31-.25,1.91-.13,1.11-.39-1.89,0,.55.41-3.21.49-1.22-.14-3.94-.26-4.3-.54h3.55c-1.82-.36-4.6,0-6.47,0l.24-.16c-5.44.05-5.52.44-11.37.42l.6.12c-3.2.39-2.68-.22-5.87.07l-1-.39c-2.11.1-7.39.38-11.17.46C505.56,1,510,.87,512.73.7c-2.09,0-7.11,0-8.2.22a25.35,25.35,0,0,1,2.74-.07,86.58,86.58,0,0,1-10.11.46c.74-.77-10.86-.19-13.88-.79C475.91.8,468.66.4,460.07.44c3,.6-2.51,0-2,.63a26.45,26.45,0,0,1-2.94,0L449.09.69c-1.44-.18,1.9-.13,1.72-.27-4.38,0-1.84-.26-4.74-.42.59.22-1.52.31-4,.23l3.52.28c-6.12.33-5.29-.51-11.46-.19l2-.19c-3.17.11-11.68,0-14.78.49-.56-.07-1.3-.24.09-.28-7.57-.07-16.84.52-22.72.22l.57-.15A29,29,0,0,1,395,.53c.09-.06.57-.15-.09-.16s-3.75.26-5.62.17l1.6-.17c-7.38-.2-11.33.41-17.51.51,0-.44-5.79-.58-8.69-.65l.1-.06c-8.59-.05-14.6.36-22.55.54C337.3.24,325.51.52,317.57.25c1.21.08-.2.34-1.61.39-1.86-.09-5.15.31-4.85-.1h.66c-1.4-.4-5.23-.29-8.22-.3l-.49.53c-7.82-.77-20.49.28-24.76-.41-1.89.13-4.22.13-6.09.26l.1-.28c-5.23-.07-7.84-.11-14.3,0l1.32-.2c-3.65,0-4.6.82-8,.83l-1-.42c-6.36,0-12.8-.36-19.08,0,.1-.06.29-.18,1.32-.2C229.6.32,221,0,222.1.62c-.07-.38-6.56,0-10,.13l.53-.28a47.36,47.36,0,0,1-7,.55c-1,0-.84-.22.43-.15-3.2-.15-2.49.26-6.37.12l1.44-.18a23.69,23.69,0,0,0-4.84.28,33.45,33.45,0,0,1-6.72-.32,16.69,16.69,0,0,1-4.18.29c-.26-.1.44-.15.8-.18-5.5-.19-8.18.32-12,.05a1.15,1.15,0,0,0-.64-.17c4.37,0,7.89,0,7.56,0,0-.26-3.53-.3-.72-.66-2.83.19-7.68.61-11.12.49a3.19,3.19,0,0,1-.45-.09l.36,0c-.79,0-1.5,0-2.17,0-1.1,0-1.79-.07-2.85-.08a47.22,47.22,0,0,0-5.81-.12c.15.28-2.16.24,0,.47a6.9,6.9,0,0,1,1.5,0l.75,0-.12,0,4.37,0a24.45,24.45,0,0,1-4.79.11c-.9.18-1.9.37-2.46.45-2.41-.39-7-.6-7.7-.85-5.37.16-12.66.1-16,.63a6.8,6.8,0,0,1-2.33-.23c.88-.05,1.93,0,2.41-.12-3.05.14-9,.05-9.78.42-3.85-.17,2.16-.34-3.13-.28l.71-.11c-10.41-.59-16.92.94-28.46.18a7.29,7.29,0,0,1,1.36.13C81.53.76,67.57,1.41,54.59.88a36.81,36.81,0,0,0-6.34.31l-.8-.3-3.85.35C38.14,1.49,34.15.49,27.24,1l.89.2c-2.48,0-7.86.12-7.45-.11a5.28,5.28,0,0,1-1.78.11L18.82,1l-6.1.27C8,1.17,13.46.66,6.57.63,4,.69-.74,1.09.23,1.19a9.75,9.75,0,0,1,2.72.26L.6,1.53C.18,2-1.63,2.47,4.13,2.8l4-.28,1.29.23H6.06a18.88,18.88,0,0,0,4.49-.1,6.44,6.44,0,0,0,1.68.25l3.94-.44c.48.18-1.77.36.88.46,1.84-.21-1.77-.41,1.28-.54a10.66,10.66,0,0,0,3.61.2c.32.12-.16.2-1.05.25,2-.14,5.31-.06,6.34-.31,2,.26,6.77-.07,6.57.37.63-.11,3.53-.35,5.37-.36-3.36.53,6.89,0,6,.6,2.49-.47,9-.21,13.4-.47a5.73,5.73,0,0,1-1.12.09c2.48,0,3.2.18,4.8.27.32-.39,4.18-.48,6.27-.72,3,.38-1.85.46-.89.82-.15-.32,5.29-.32,4.25-.58a13.44,13.44,0,0,1,3.2.44c.41-.49,2.17-.08,4.1-.38,3.37.24.87.46,4.57.31C85.51,3,82.22,3.21,82.22,3.21Zm88-.85h0l-1.82,0Zm7.39,0h-3.21c-.26-.1,0-.2.77-.19A14.66,14.66,0,0,0,177.6,2.36ZM162,.41a5.76,5.76,0,0,1,1.72.07l-2,0-.14,0A1.58,1.58,0,0,1,162,.41Z" style="fill:#202020"/><path d="M159.86.78l-.48,0,.7.06.41-.09Z" style="fill:#202020"/><path d="M830.1,1.2h-.16l.33,0Z" style="fill:#202020"/><polygon points="279.7 2.9 279.69 2.83 279.04 2.89 279.7 2.9" style="fill:#202020"/><path d="M870.82,2.16a2.64,2.64,0,0,0,.53.07A3.46,3.46,0,0,0,870.82,2.16Z" style="fill:#202020"/><path d="M888.41,2.23l2.49.1C889.82,2.27,889,2.24,888.41,2.23Z" style="fill:#202020"/><path d="M901.94,2.37a.67.67,0,0,0,.26-.12h0Z" style="fill:#202020"/><path d="M686.9,2.7h-.52C685.15,2.76,686,2.74,686.9,2.7Z" style="fill:#202020"/><path d="M750.89,2c-.68.05-1.35.1-2.06.13C750,2.19,750.86,2.2,750.89,2Z" style="fill:#202020"/><path d="M615.44,3h0Z" style="fill:#202020"/><path d="M745.86,2.17c1.14.06,2.09,0,3,0C747.9,2.15,746.8,2.13,745.86,2.17Z" style="fill:#202020"/><path d="M960.56,2.49h.65s0,0,.08,0Z" style="fill:#202020"/><path d="M961.28,2.46l.72,0A4,4,0,0,0,961.28,2.46Z" style="fill:#202020"/><path d="M963.53,2.36,962,2.43A8.62,8.62,0,0,0,963.53,2.36Z" style="fill:#202020"/><path d="M942.65,2.36l-.21.1C942.56,2.45,942.63,2.41,942.65,2.36Z" style="fill:#202020"/><path d="M937.21,2.39c1.3,0,3.26.22,5.07.15l.17-.08C941.59,2.62,938.44,2.22,937.21,2.39Z" style="fill:#202020"/><path d="M914.5,1.13l4.56.08c-.8-.11-1.84-.25.23-.28C913.54.61,920.47,1.18,914.5,1.13Z" style="fill:#202020"/><path d="M900.36,1c2.45-.05,0-.16.1-.22C898.91.86,898.53.88,900.36,1Z" style="fill:#202020"/><path d="M798.2,1l.25-.26C796.56.76,798.43.82,798.2,1Z" style="fill:#202020"/><polygon points="778.67 2.3 780.51 2.46 781.39 2.22 778.67 2.3" style="fill:#202020"/><polygon points="767.14 0.47 767.96 0.44 764.81 0.53 767.14 0.47" style="fill:#202020"/><path d="M595.56.57l.57.31C597.41.82,597.67.47,595.56.57Z" style="fill:#202020"/><path d="M521.49.89a17.87,17.87,0,0,0-4.17-.1C519,.8,520.64.93,521.49.89Z" style="fill:#202020"/><polygon points="299.34 0.37 300.83 0.27 298.02 0.36 299.34 0.37" style="fill:#202020"/></svg>