<svg id="Layer_1" data-name="Layer 1" xmlns="http://www.w3.org/2000/svg" viewBox="0 0 977.37 3.24"><title>hand-line-left</title><path d="M.14,1c-.51.09-.22.28,1.19.24l1-.33Z" transform="translate(0.1 0)" style="fill:#202020"/><path d="M9.67,1.57c1.67-.16,3.59-.44,2.51-.75-1.65.32-2,.19-3.83.56-1.42,0-2.47-.11-2.24-.23a26.4,26.4,0,0,0-3,.13,30.87,30.87,0,0,0,6.62.05C10.3,1.42,9.79,1.5,9.67,1.57Z" transform="translate(0.1 0)" style="fill:#202020"/><path d="M148.22,2.08l-.89,0C147.57,2.06,147.88,2.08,148.22,2.08Z" transform="translate(0.1 0)" style="fill:#202020"/><path d="M234.07,2.26a3.52,3.52,0,0,0-1,.07C233.71,2.31,234.21,2.29,234.07,2.26Z" transform="translate(0.1 0)" style="fill:#202020"/><path d="M248.72,2.63l-.86,0A4.73,4.73,0,0,0,248.72,2.63Z" transform="translate(0.1 0)" style="fill:#202020"/><path d="M148.22,2.08l2.29.1A10.28,10.28,0,0,0,148.22,2.08Z" transform="translate(0.1 0)" style="fill:#202020"/><path d="M28.78.77c-.48,0-.88,0-1.25.09l1.17,0Z" transform="translate(0.1 0)" style="fill:#202020"/><path d="M110.38,2.35h-.7c-.21,0-.4.08-.58.13Z" transform="translate(0.1 0)" style="fill:#202020"/><path d="M81.34,2.4A1.83,1.83,0,0,0,82.47,2,5.74,5.74,0,0,1,81,2.2C81,2.26,81.12,2.32,81.34,2.4Z" transform="translate(0.1 0)" style="fill:#202020"/><path d="M35.29,1.91l-.82,0Z" transform="translate(0.1 0)" style="fill:#202020"/><path d="M131.17,2.41a.65.65,0,0,0,.26.1S131.33,2.44,131.17,2.41Z" transform="translate(0.1 0)" style="fill:#202020"/><path d="M943.47.3s0,0,0,.05C943.64.32,943.69.3,943.47.3Z" transform="translate(0.1 0)" style="fill:#202020"/><path d="M977.14,1.69l-.47,0c0,.05-.1.11-.1.16Z" transform="translate(0.1 0)" style="fill:#202020"/><path d="M275.55,3h-.12C274.72,3,275.12,3,275.55,3Z" transform="translate(0.1 0)" style="fill:#202020"/><path d="M521.79,2.78c-2.79-.25,4.54-.32.34-.6C522.52,2.29,518.31,2.62,521.79,2.78Z" transform="translate(0.1 0)" style="fill:#202020"/><path d="M29.53.8h1.19C30.18.79,29.81.79,29.53.8Z" transform="translate(0.1 0)" style="fill:#202020"/><path d="M522.13,2.18h0l-.43,0Z" transform="translate(0.1 0)" style="fill:#202020"/><path d="M337.35,2.82a3.51,3.51,0,0,0-.63-.12A1.83,1.83,0,0,0,337.35,2.82Z" transform="translate(0.1 0)" style="fill:#202020"/><path d="M291.31,2.42l1.14,0C292,2.43,291.63,2.42,291.31,2.42Z" transform="translate(0.1 0)" style="fill:#202020"/><path d="M361.26,2.42a14.88,14.88,0,0,0,1.68,0l-.26,0A7.45,7.45,0,0,1,361.26,2.42Z" transform="translate(0.1 0)" style="fill:#202020"/><path d="M386.14,2.42l-.46-.06-.79,0Z" transform="translate(0.1 0)" style="fill:#202020"/><path d="M867.85.43A6.68,6.68,0,0,1,869,.69C868.62.49,872.27.41,867.85.43Z" transform="translate(0.1 0)" style="fill:#202020"/><path d="M28.79.92A1.93,1.93,0,0,1,29.53.8l-.83,0C28.63.86,28.61.9,28.79.92Z" transform="translate(0.1 0)" style="fill:#202020"/><path d="M362.27.2l4,0C365.12.22,363.68.2,362.27.2Z" transform="translate(0.1 0)" style="fill:#202020"/><path d="M689.34.47l.91,0A6.41,6.41,0,0,0,689.34.47Z" transform="translate(0.1 0)" style="fill:#202020"/><path d="M378,.2c.71.1,1.45.16,2.23.19a3.8,3.8,0,0,0,.46-.07Z" transform="translate(0.1 0)" style="fill:#202020"/><path d="M869,.69h0Z" transform="translate(0.1 0)" style="fill:#202020"/><path d="M895,0c-3.77,0-1.77.36-2.57.57C888,.7,890.4.32,888.87.13c-2.81.1-5,.44-7.05.42-.16-.06-.56-.08-.09-.16-3,.29-8.81,0-12.27.38A1.9,1.9,0,0,1,869,.69c.56.19.65.37.53.51a18.16,18.16,0,0,1-3.77,0A5.91,5.91,0,0,0,867.38,1l-1.77.1C864,.78,868,1,868,.75c-3.45.11-7.47.4-10.12.3-.55-.34,6.18-.11,2.65-.42l4.09.13c-3.13-.54,2.49,0-.39-.54-5.38-.1-6,.17-11.39.07-1.21.19.4.28-.81.47-7.63.34-6-.85-11.62-.4a17.41,17.41,0,0,1-6,.43l1.36-.38c-5.21,0-3,.55-8.43.29,1-.15,4.1-.13,3.31-.17-3.54-.3-2.5.22-5.22.22l-.56-.34c-5.55.05-11.66.3-17.81.36.34-.1,1.39-.21,0-.31-7.75.17-16.55,0-24-.24l-2.86.29c-.66,0-1.23-.13-.51-.19-2.91-.11-.15.19-1.55.3-1.66,0-2.19-.17-1.14-.26C771.8.62,762.3.9,756.88.59L757.94.5c-4.22-.12-4.76.6-8.67.33L750,.78c-9.16-.13-19.27.14-26.26-.3-1.33.42-9.06-.19-9.65.4C708.87.59,710.37.48,703,.28c-2,0-2.93.37-5.36.43l-.06-.31-3.3.32L692.53.36l-2.28.08c.91,0,1.93.14,1.79.23a52.83,52.83,0,0,1-8.77-.37l-8.43.26a18.07,18.07,0,0,1,2.71-.25c-4.5.31-.82-.32-4.94,0,.55.07-.3.18-.39.25C670.17.33,665.49.33,662,.41L662.7.2c-6.25-.05-13.18.1-20.19.1,2.52.1,1.94.47-.12.5l-.82-.33c-1.33.2,2.15.12-.58.37-2.62,0-1.76-.37-.26-.48l-3.19.11c-.19-.1.56-.15.75-.27-1.31.2-5.5-.33-7.39,0l-.18-.1c-7,0-10.19.11-15.91.13-.11.28-2.35.22-4,.45-4.2-.09-8.86-.31-13.92-.29-3.55.14-1,.24-2.64.41-.26-.26-5.31-.23-2.69-.42-6.07,0-7.75.05-15.43.26.83.1,1.77.15,1.28.24a8.73,8.73,0,0,1-3-.23l.37,0C566.16,1,554.89-.1,548,.43l.38,0-7.12.28c-3.27,0,2-.19-.46-.35-7.68.43-12.13-.06-18.45.22-4.89-.76-17.37.05-24-.43l.38.18a15.64,15.64,0,0,1-3.32-.14c.18.14,1.85.16.79.26C481.8.64,466.41.16,451.59,0c-5.42,0-3.08.92-9.91.5l1.94-.33c-10.94.4-22.38,0-33.09.32a8,8,0,0,1,1.7-.17,46.85,46.85,0,0,0-8.41.18c-1.67,0-.39-.18-1.41-.28-2.27-.14-5.7.31-6.9.07-.21,0,.64-.08,1.05-.1-1.48.12-6.89,0-5.47.25-4-.13-7.69.12-10.9,0-2.09.31-6.88-.15-7.55.29.29-.45-7-.36-9.59-.15.85-.14-2.21-.14-1.21-.33-2.9,0-5.56.09-5.05.32C351.43,0,346,1,343,.27c-8.62.24-16.59.41-24.35.51.28-.45,8.57,0,8.24-.52-7.35.19-11.6.57-18.89.46-1.89-.06,1.07-.2,1.71-.27-7.35.19-14.21,0-20.74.2a8.88,8.88,0,0,1,1.39-.12c-1.29,0-3-.07-2.85.14l1.26-.06c2.06.3-5.12.62-5.35.78,2.19-.59-6.46-.15-3-.89-.85,0-1.91.14-1.72.27-1.26,0-1.66-.12-.38-.28-4.62.11-3,.33-7.16.33a8.56,8.56,0,0,1,1.29-.25,59.73,59.73,0,0,1-7.78.3c.21-.06-.2-.14.86-.14-6.07,0-10.34.52-17,.33,2-.43-2.26-.14-2.62-.52l-3.58.11,1.44.18c-3.14,0-5.91.27-8.6.14l2.33-.15-5.88.07,3.33.14c-3.17.19.34.47-3.83.37.85,0-3.14,0-4.77-.22h0a42.44,42.44,0,0,1-5.47.15c-.6-.12.48-.41.09-.49-1.53.31-7.34.09-9.28.42.65-.08.68-.27.47-.31l-1.28.25c-1.45-.08-1.67-.12-1.43-.28-4.37,0,1.39.47-3.8.27.41,0,.21-.06,1.06-.1-5.21-.11-10.06.16-14.85,0-1.41-.38,4.18-.09,2.57-.41-6.9.07-14.29.45-21,.36l1.24,0c-.93.53-5-.26-8.35,0,.83,0,1.08-.29.86-.24-4.57-.09-9.35.13-16.28.3l.86-.14c-2.69-.12-7.1-.07-10-.13-.86.14-2.53.11-1.52.31-9-.78-17.12.42-25.09-.23,1,0,2.27-.12,1.51-.12L109.94,1a9.76,9.76,0,0,0,2.31.32,35.88,35.88,0,0,1-4.45.24c3.05-.15,0-.37-1.34-.5.22.07-.23.15-.12.22-3.54-.41-.59.46-5.43.19l.26-.12c-1.81.06-3.48.22-5.43.19-.81-.27,1.93-.12,2.05-.34-2.74,0-5.41.51-7.89.24,1.16-.07,2.84-.08,4-.15a37.24,37.24,0,0,0-5-.28h.2L84.41.87,85.6,1c-3.43.7-7,.13-11.61.58,4.49-.43.74-.25,1.09-.55C73.89.9,72.1.81,72.61.73,70.42,1,69,.53,65.87.89c-.14-.1-2.34,0-1.84-.25-2.84.08.67.17.43.29-4.38.33-10.29-.4-16.59.05-5.43.19-6.44.52-11.48.68-1.7-.16,1.39-.36,1.39-.36a71.47,71.47,0,0,0-7.4,0c.52-.09,0-.16-.8-.27-2.08,0-1.39.36-4.13.21A14.55,14.55,0,0,1,27.53.85c-2.45.09-4.86.27-7.39.36C19.47,1,21.67,1,22.56.84a75.42,75.42,0,0,0-8.25.42l1.83.1c-1,0-.53-.23.23-.28A8.27,8.27,0,0,1,20,1.28l-1.8.06c1.85.57,7.24-.09,10.87-.06l-1.51.42,3.72-.35c.79.11,1.33.34-.46.4,2.6.21,2.3-.15,4.54.08.25,0,.13.06-.09.07l2.54-.12c-.5.09.42.29-1.14.23,4.56.24,7.36-.31,9.08,0l-.38,0c6.33-.14.61-.31,5.36-.66l3.2.75.62-.31c.65,0,1.95,0,1.71.16,2.43-.21-.41-.13,1-.33,3.14.28,8.67-.13,9.38.36,1.13-.23-3-.18.35-.34,1,.52,3.88-.09,6.75.15-.88.27-3.6.13-.73.37,1.73-.46,5.59.1,8,0,.11-.36,5.27-.15,9.33-.27-.26.12,7.65.2,11.43.33l-.11.06c.73-.37,4.63-.3,7.47-.37-.11.22-.62.31-2.16.4h2.67a21.08,21.08,0,0,1,3.2-.22l-.67.27c3.55,0,7.16-.32,11.73-.14.26-.26-3.64-.71,1.2-.88.18.14.36.38-.91.43a20,20,0,0,1,2.31-.06L124.61,2c2.08.1,1.09-.19,2.75-.17,0,.2,1.23.14,1,.3-.43,0-1.45-.08-2.09,0a42.51,42.51,0,0,1,4.9.3c-.16-.11,0-.27,1.38-.29,3.55,0,1.22.24,3.29.34.86-.14,3.13,0,3.19-.29a5.17,5.17,0,0,1,1.63.22c1.84-.13,8.59,0,6.52-.35l-.47,0h.3c6-.29,12.53.17,18.51,0v.1c3.57-.11,7.95-.07,10.5-.28,1.06,0,2.49.18,2,.3a66.3,66.3,0,0,1,7,0c-2.74.17.95.15-2.81.13a62.65,62.65,0,0,0,8.16,0c-1.3.25,2.67.32,4.36.24l-2.49-.18c1.9,0,3.55,0,5.24,0l-.91.33c7.26.4,13.09-.69,18.62,0,1.92-.23-3.94-.16-2.23-.44,3.34,0,6.82.52,7.86.52,4.57.18,4.27-.49,9.05-.36-.61-.12-1.19-.44,2.39-.55,3.34,0,4.11.5,2,.59a3.22,3.22,0,0,1-1.15-.07c-1.08,0-2.5.09-1.17.22l.43-.12c1.66.12,6.25.11,5.18.3,2.52-.11,1.08-.19-.79-.26,4.29.17,6.7,0,11.11.12-.7-.07-1.35-.2-.65-.2,6.47.15,2.85-.23,7.23-.28,2.49.18-.89.43,3.52.28,2.69.12.57.31-.5.41,4-.23,7.51.15,9.81.19l-2.12.1c1.27-.06,2.3-.06,3.36-.05l-1.21-.24a10.57,10.57,0,0,1,2.27.14c1.28-.16-1-.39,1.56-.61,1.66.12,5-.13,5.62.19-5.21-.11.58.32-3.84.37.85,0,1.89,0,3.14,0,.19,0-.18.07-.52.08,5,.28,2.29-.36,7.46-.35-.66.18,1.2.34,2,.3-2.08,0-1-.3.91-.43,3.32.14,3.6-.1,5.34-.09l-2-.06A34.25,34.25,0,0,1,294,2.14c.2.14-2.1.1-1.27.16,2.57-.31,5.8.32,9.38.11,1.66.12.16.33,1.62.42,4-.23,4.34.24,8.56.05-1.21-.24-1.43-.18,1.54-.41l-6.93.17,4.45-.35c-2.09,0-4.41.15-5.67.11,2.12-.19,1.9-.14.9-.33,2.86.36,5.67-.21,9,0l-.1.59c5,.26,8.84-.3,15.29-.15l-2.08-.1c.87-.23,4,0,6.08-.13-.19.2,1.11.27,2,.39-.11-.15,4.73,0,5.31-.38l2.88.26c5.21.11,6-.56,11-.5-1.51.21.77.35-2.59.51a15.49,15.49,0,0,0,3.21-.1c1,.12,4.64-.27,6.18-.08a11.16,11.16,0,0,1,2.82-.28c.21,0,0,.1,0,.1s2.94-.13,1.3-.35c5.16.62,14.41,0,18.9.48,3.65-.07,8.05-.13,11.37-.14-.21.06,0,.1-.64.08,4.57.18,2.81-.57,8-.36,2.66.32-2.76.17-1.11.29.72.65,6.28-.09,9.78.29l-.85,0c2.68.22,6.53-.25,10.91-.2,0,0-.21.06,0,.1,3-.33,8.65-.44,12.86-.53-1.31.25-1.91.13-1.11.39,1.89,0-.55-.41,3.21-.49,1.22.14,3.94.26,4.3.54h-3.55c1.82.36,4.6,0,6.47,0l-.24.16c5.44-.05,5.52-.44,11.37-.42l-.6-.12c3.2-.39,2.68.22,5.87-.07l1,.39c2.11-.1,7.39-.38,11.17-.46-2.14.29-6.57.44-9.31.62,2.09,0,7.11,0,8.2-.22a25.35,25.35,0,0,1-2.74.07,86.58,86.58,0,0,1,10.11-.46c-.74.77,10.86.19,13.88.79,7.37-.28,14.62.12,23.21.08-3-.6,2.51,0,2-.63a26.45,26.45,0,0,1,2.94,0l6.06.37c1.44.18-1.9.13-1.72.27,4.38,0,1.84.26,4.74.42-.59-.22,1.52-.31,4-.23l-3.52-.28c6.12-.33,5.29.51,11.46.19l-2,.19c3.17-.11,11.68,0,14.78-.49.56.07,1.3.24-.09.28,7.57.07,16.84-.52,22.72-.22l-.57.15a29,29,0,0,1,4.22-.13c-.09.06-.57.15.09.16s3.75-.26,5.62-.17l-1.6.17c7.38.2,11.33-.41,17.51-.51,0,.44,5.79.58,8.69.65l-.1.06c8.59.05,14.6-.36,22.55-.54,4.94.48,16.73.2,24.67.47-1.21-.08.2-.34,1.61-.39,1.86.09,5.15-.31,4.85.1h-.66c1.4.4,5.23.29,8.22.3l.49-.53c7.82.77,20.49-.28,24.76.41,1.89-.13,4.22-.13,6.09-.26l-.1.28c5.23.07,7.84.11,14.3,0l-1.32.2c3.65,0,4.6-.82,8-.83l1,.42c6.36,0,12.8.36,19.08,0-.1.06-.29.18-1.32.2,3,0,11.58.29,10.49-.29.07.38,6.56,0,10-.13l-.53.28a47.36,47.36,0,0,1,7-.55c1,0,.84.22-.43.15,3.2.15,2.49-.26,6.37-.12l-1.44.18A23.69,23.69,0,0,0,781,2.14a33.45,33.45,0,0,1,6.72.32,16.69,16.69,0,0,1,4.18-.29c.26.1-.44.15-.8.18,5.5.19,8.18-.32,12-.05a1.15,1.15,0,0,0,.64.17c-4.37,0-7.89,0-7.56,0,0,.26,3.53.3.72.66,2.83-.19,7.68-.61,11.12-.49a3.19,3.19,0,0,1,.45.09l-.36,0c.79,0,1.5,0,2.17,0,1.1,0,1.79.07,2.85.08a47.22,47.22,0,0,0,5.81.12c-.15-.28,2.16-.24,0-.47a6.91,6.91,0,0,1-1.5,0l-.75,0,.12,0-4.37,0a24.45,24.45,0,0,1,4.79-.11c.9-.18,1.9-.37,2.46-.45,2.41.39,7,.6,7.7.85,5.37-.16,12.66-.1,16-.63a6.8,6.8,0,0,1,2.33.23c-.88.05-1.93,0-2.41.12,3.05-.14,9-.05,9.78-.42,3.85.17-2.16.34,3.13.28l-.71.11c10.41.59,16.92-.94,28.46-.18a7.29,7.29,0,0,1-1.36-.13c13.15.33,27.11-.31,40.09.22A36.81,36.81,0,0,0,929,2l.8.3L933.67,2c5.46-.26,9.45.74,16.37.26l-.89-.2c2.48,0,7.86-.12,7.45.11a5.28,5.28,0,0,1,1.78-.11l.08.16,6.1-.27c4.73.11-.74.63,6.16.66,2.56-.06,7.3-.46,6.34-.57a9.75,9.75,0,0,1-2.72-.26l2.35-.08c.43-.47,2.23-.94-3.53-1.27l-4,.28L967.84.5h3.38a18.88,18.88,0,0,0-4.49.1A6.44,6.44,0,0,0,965,.34l-3.94.44c-.48-.18,1.77-.36-.88-.46-1.84.21,1.77.41-1.28.54a10.66,10.66,0,0,0-3.61-.2c-.32-.12.16-.2,1.05-.25-2,.14-5.31.06-6.34.31-2-.26-6.77.07-6.57-.37-.63.11-3.53.35-5.37.36,3.36-.53-6.89,0-6-.6-2.49.47-9,.21-13.4.47A5.73,5.73,0,0,1,919.81.5c-2.48,0-3.2-.18-4.8-.27-.32.39-4.18.48-6.27.72-3-.38,1.85-.46.89-.82.15.32-5.29.32-4.25.58a13.44,13.44,0,0,1-3.2-.44c-.41.49-2.17.08-4.1.38-3.37-.24-.87-.46-4.57-.31C891.76.19,895,0,895,0Zm-88,.85h0l1.82,0Zm-7.39,0h3.21c.26.1,0,.2-.77.19A14.66,14.66,0,0,0,799.67.87Zm15.64,1.95a5.76,5.76,0,0,1-1.72-.07l2,0,.14,0A1.58,1.58,0,0,1,815.31,2.82Z" transform="translate(0.1 0)" style="fill:#202020"/><path d="M817.41,2.45l.48,0-.7-.06-.41.09Z" transform="translate(0.1 0)" style="fill:#202020"/><path d="M147.17,2h.16L147,2Z" transform="translate(0.1 0)" style="fill:#202020"/><polygon points="697.67 0.34 697.69 0.41 698.33 0.35 697.67 0.34" style="fill:#202020"/><path d="M106.45,1.07a2.64,2.64,0,0,0-.53-.07A3.46,3.46,0,0,0,106.45,1.07Z" transform="translate(0.1 0)" style="fill:#202020"/><path d="M88.86,1,86.37.91C87.45,1,88.23,1,88.86,1Z" transform="translate(0.1 0)" style="fill:#202020"/><path d="M75.34.87a.67.67,0,0,0-.26.12h0Z" transform="translate(0.1 0)" style="fill:#202020"/><path d="M290.38.54h.52C292.12.47,291.29.49,290.38.54Z" transform="translate(0.1 0)" style="fill:#202020"/><path d="M226.38,1.19c.68-.05,1.35-.1,2.06-.13C227.3,1,226.42,1,226.38,1.19Z" transform="translate(0.1 0)" style="fill:#202020"/><path d="M361.84.2h0Z" transform="translate(0.1 0)" style="fill:#202020"/><path d="M231.42,1.07c-1.14-.06-2.09,0-3,0C229.37,1.08,230.47,1.11,231.42,1.07Z" transform="translate(0.1 0)" style="fill:#202020"/><path d="M16.72.74h-.65s0,0-.08,0Z" transform="translate(0.1 0)" style="fill:#202020"/><path d="M16,.77l-.72,0A4,4,0,0,0,16,.77Z" transform="translate(0.1 0)" style="fill:#202020"/><path d="M13.74.88,15.26.81A8.62,8.62,0,0,0,13.74.88Z" transform="translate(0.1 0)" style="fill:#202020"/><path d="M34.62.87l.21-.1C34.71.79,34.64.82,34.62.87Z" transform="translate(0.1 0)" style="fill:#202020"/><path d="M40.06.84C38.76.82,36.81.62,35,.69l-.17.08C35.68.62,38.83,1,40.06.84Z" transform="translate(0.1 0)" style="fill:#202020"/><path d="M62.77,2.1,58.21,2c.8.11,1.84.25-.23.28C63.73,2.62,56.8,2.06,62.77,2.1Z" transform="translate(0.1 0)" style="fill:#202020"/><path d="M76.91,2.26c-2.45.05,0,.16-.1.22C78.36,2.38,78.74,2.35,76.91,2.26Z" transform="translate(0.1 0)" style="fill:#202020"/><path d="M179.07,2.26l-.25.26C180.71,2.48,178.84,2.42,179.07,2.26Z" transform="translate(0.1 0)" style="fill:#202020"/><polygon points="198.7 0.94 196.86 0.78 195.99 1.01 198.7 0.94" style="fill:#202020"/><polygon points="210.24 2.76 209.41 2.8 212.56 2.71 210.24 2.76" style="fill:#202020"/><path d="M381.71,2.67l-.57-.31C379.87,2.41,379.6,2.76,381.71,2.67Z" transform="translate(0.1 0)" style="fill:#202020"/><path d="M455.79,2.35a17.87,17.87,0,0,0,4.17.1C458.29,2.43,456.63,2.31,455.79,2.35Z" transform="translate(0.1 0)" style="fill:#202020"/><polygon points="678.03 2.86 676.54 2.97 679.35 2.88 678.03 2.86" style="fill:#202020"/></svg>